<?xml version="1.0" standalone="no"?>
<!DOCTYPE svg PUBLIC "-//W3C//DTD SVG 20010904//EN"
 "http://www.w3.org/TR/2001/REC-SVG-20010904/DTD/svg10.dtd">
<svg version="1.0" xmlns="http://www.w3.org/2000/svg"
 width="944.000000pt" height="944.000000pt" viewBox="0 0 944.000000 944.000000"
 preserveAspectRatio="xMidYMid meet">
<metadata>
Created by potrace 1.11, written by Peter Selinger 2001-2013
</metadata>
<g transform="translate(0.000000,944.000000) scale(0.100000,-0.100000)"
fill="#000000" stroke="none">
<path d="M2231 6973 c-19 -13 -28 -14 -42 -5 -30 19 -97 15 -121 -8 -12 -11
-28 -20 -35 -20 -7 0 -13 -4 -13 -10 0 -5 -12 -10 -26 -10 -31 0 -74 -29 -129
-86 -22 -23 -53 -49 -70 -57 -16 -8 -39 -24 -50 -34 -11 -10 -36 -30 -55 -43
-38 -27 -65 -48 -85 -67 -8 -7 -16 -13 -18 -13 -3 0 -90 -84 -194 -187 -104
-104 -205 -202 -224 -219 -39 -35 -162 -171 -167 -185 -2 -5 -10 -9 -18 -9 -8
0 -14 -4 -14 -8 0 -14 -56 -76 -225 -248 -179 -182 -221 -227 -250 -268 -11
-15 -31 -41 -45 -56 -57 -64 -78 -90 -83 -105 -4 -8 -11 -15 -16 -15 -6 0 -8
-7 -5 -15 4 -9 0 -15 -10 -15 -9 0 -16 -4 -16 -8 0 -5 -9 -18 -20 -30 -12 -12
-18 -22 -15 -22 3 0 -5 -15 -19 -33 -14 -19 -31 -49 -37 -68 -7 -19 -17 -41
-23 -49 -6 -8 -11 -33 -11 -55 0 -36 3 -40 28 -43 18 -2 27 1 27 11 0 10 8 13
28 9 15 -2 24 -1 20 3 -10 10 22 34 45 35 10 0 20 7 23 15 4 9 11 15 18 14 20
-3 46 13 46 28 0 8 7 13 17 11 10 -2 27 5 38 14 47 41 55 48 55 42 0 -3 17 7
38 22 41 31 102 91 102 102 0 4 9 13 20 20 11 7 20 19 20 27 0 8 6 15 13 15 7
0 19 6 26 13 6 6 15 12 19 12 12 1 70 34 74 42 4 10 113 63 128 63 6 0 8 5 5
10 -3 6 3 10 14 10 12 0 21 5 21 11 0 5 5 7 10 4 6 -3 10 1 10 9 0 8 14 30 30
48 17 18 30 37 30 42 0 5 3 7 6 4 7 -8 44 28 44 43 0 5 5 7 10 4 6 -3 10 1 10
10 0 9 4 14 9 11 4 -3 16 3 26 14 10 11 24 20 32 20 7 0 13 7 13 15 0 8 7 15
15 15 7 0 18 6 22 14 4 7 13 15 19 17 35 13 145 117 315 296 69 74 180 163
202 163 3 0 8 -21 12 -46 7 -49 11 -74 20 -114 10 -48 15 -75 21 -110 3 -19 7
-44 9 -56 2 -11 6 -52 9 -90 11 -121 28 -229 39 -241 6 -9 6 -13 -3 -13 -9 0
-9 -4 -3 -12 6 -7 11 -20 11 -28 1 -29 10 -95 16 -110 3 -8 8 -33 11 -55 10
-61 11 -64 18 -71 4 -4 7 -18 7 -31 0 -13 4 -23 9 -23 9 0 24 -38 22 -54 -1
-4 3 -14 9 -21 6 -7 13 -21 15 -31 2 -11 11 -37 19 -59 8 -22 15 -48 16 -57 0
-10 5 -18 12 -18 6 0 9 -2 6 -6 -3 -3 0 -25 7 -49 8 -24 11 -46 8 -49 -4 -3
-1 -6 5 -6 7 0 11 -3 11 -7 -1 -5 -1 -10 1 -13 1 -3 3 -16 6 -30 2 -14 12 -47
22 -75 9 -27 17 -54 18 -60 2 -29 31 -103 46 -119 17 -19 22 -31 19 -48 0 -5
3 -8 9 -8 5 0 10 -4 10 -9 0 -5 5 -22 12 -38 6 -15 11 -31 10 -35 -1 -5 3 -8
9 -8 5 0 8 -4 4 -10 -3 -5 -2 -17 3 -27 22 -42 42 -95 42 -108 0 -8 5 -15 10
-15 6 0 10 -11 10 -25 0 -14 5 -25 10 -25 6 0 9 -3 8 -8 -2 -4 9 -32 24 -62
26 -53 61 -161 61 -187 0 -7 4 -13 8 -13 4 0 10 -8 13 -17 3 -10 17 -31 32
-46 38 -41 52 -24 48 59 -3 70 -6 93 -24 184 -6 30 -13 71 -16 90 -8 54 -12
73 -18 100 -3 14 -8 41 -10 60 -3 19 -10 60 -16 90 -6 30 -13 87 -15 125 -3
39 -7 95 -9 125 -3 30 -7 98 -11 150 -7 124 -15 243 -20 305 -2 28 -7 106 -10
175 -3 69 -8 145 -10 170 -2 25 -7 92 -10 150 -4 58 -8 120 -10 138 -2 17 0
32 4 32 14 0 51 -37 44 -44 -3 -3 -2 -6 4 -6 5 0 31 -20 58 -45 26 -25 56 -50
67 -56 10 -5 18 -16 18 -25 0 -16 34 -52 96 -99 21 -16 60 -50 87 -75 27 -25
54 -44 59 -42 5 1 7 -1 4 -6 -3 -4 9 -19 26 -33 16 -13 48 -41 70 -61 22 -21
41 -38 43 -38 3 0 24 -19 49 -42 24 -24 61 -56 81 -73 21 -16 52 -43 70 -60
31 -29 40 -36 100 -75 26 -17 30 -25 31 -72 1 -29 5 -73 9 -98 4 -25 9 -58 11
-75 7 -67 23 -156 30 -167 3 -5 7 -23 9 -41 8 -61 28 -132 47 -162 10 -16 18
-37 18 -47 0 -9 3 -18 8 -20 9 -4 83 -154 81 -165 -3 -12 13 -46 28 -61 7 -7
13 -20 13 -28 0 -8 5 -14 10 -14 6 0 10 -5 10 -11 0 -16 29 -41 39 -34 6 3 8
13 7 23 -2 9 -7 49 -11 87 -3 39 -10 99 -14 135 -7 54 -8 346 -3 483 l2 37 43
-21 c23 -12 45 -26 48 -31 3 -5 15 -10 27 -11 12 0 24 -7 27 -15 3 -7 9 -10
15 -7 5 3 10 1 10 -4 0 -6 4 -11 9 -11 6 0 23 -12 38 -26 24 -23 79 -52 108
-59 6 -2 33 -17 61 -34 28 -18 58 -34 65 -35 39 -8 75 -20 87 -29 6 -5 12 -6
12 -2 0 5 9 0 20 -10 32 -29 203 -118 228 -118 6 0 12 -4 12 -7 0 -6 44 -19
65 -20 3 0 20 -6 39 -14 36 -15 265 -79 326 -91 19 -4 69 -18 110 -32 41 -14
88 -27 105 -29 28 -4 44 -7 98 -19 49 -12 203 -29 352 -40 44 -3 103 -8 131
-10 28 -2 91 -7 140 -10 49 -3 109 -8 134 -10 25 -2 92 -7 150 -10 58 -4 108
-9 113 -12 4 -2 7 1 7 8 0 8 4 8 13 1 6 -5 64 -13 127 -17 63 -4 130 -8 149
-11 19 -2 78 -6 130 -9 53 -4 110 -8 126 -10 17 -3 93 -7 170 -10 77 -3 203
-8 280 -11 77 -3 192 -7 257 -8 64 0 114 -4 111 -8 -5 -10 122 -13 245 -7 28
1 52 5 52 8 0 6 207 -4 285 -13 128 -16 223 -16 280 -2 32 9 80 19 105 22 25
3 56 7 70 10 14 2 50 7 80 9 61 6 78 9 100 18 8 4 26 8 40 10 14 2 32 7 40 10
12 4 85 15 135 19 6 0 19 4 31 8 18 7 72 18 114 24 19 2 177 83 183 93 6 9
-139 9 -168 0 -50 -16 -850 -26 -950 -12 -16 2 -104 7 -195 10 -165 5 -284 12
-350 19 -19 3 -66 7 -105 11 -38 3 -90 8 -115 11 -84 9 -125 12 -245 19 -107
5 -173 13 -255 30 -14 3 -79 8 -145 11 -119 5 -200 10 -200 14 0 3 -126 15
-250 25 -38 2 -79 6 -90 9 -56 11 -112 20 -125 20 -8 0 -18 5 -22 11 -5 6 -8
5 -8 -3 0 -8 -5 -9 -17 -3 -10 5 -43 14 -74 21 -31 6 -69 13 -85 17 -16 3 -35
6 -41 6 -7 0 -13 4 -13 9 0 5 -4 7 -9 4 -5 -4 -21 -2 -36 4 -14 5 -51 12 -83
16 -81 8 -137 19 -179 35 -28 11 -47 16 -93 25 -156 30 -271 57 -300 68 -146
59 -189 75 -215 80 -29 5 -145 32 -155 37 -9 3 -24 7 -74 19 -27 6 -67 24 -90
39 -23 15 -53 31 -67 34 -15 4 -49 22 -77 41 -86 57 -161 95 -166 82 -2 -6 -5
-3 -5 7 -1 10 -5 16 -10 13 -4 -3 -16 3 -26 14 -10 11 -22 20 -26 20 -8 0 -36
20 -64 48 -8 6 -21 12 -31 12 -9 0 -31 11 -48 24 -17 13 -42 27 -56 31 -14 4
-27 11 -30 14 -9 11 -89 61 -99 61 -5 0 -11 3 -13 8 -5 11 -135 102 -146 102
-6 0 -12 3 -14 8 -5 13 -85 72 -97 72 -6 0 -11 4 -11 9 0 5 -9 13 -20 16 -11
3 -22 16 -25 28 -4 12 -21 33 -40 46 -19 13 -46 35 -60 48 -14 14 -25 23 -25
19 0 -4 -11 4 -24 18 -13 15 -26 26 -29 26 -6 0 -92 87 -174 177 -16 17 -50
41 -76 53 -25 12 -54 34 -63 48 -10 15 -36 50 -59 77 -23 28 -55 70 -70 95
-16 25 -49 71 -74 102 -25 31 -63 82 -84 112 -22 30 -46 62 -56 73 -9 10 -27
34 -41 53 -13 19 -27 37 -30 40 -3 3 -26 34 -52 71 -25 36 -54 72 -64 80 -64
53 -195 286 -203 361 -1 6 -36 21 -53 23 -3 0 -10 3 -14 8 -11 11 -27 8 -53
-10z m59 -1413 c0 -5 -2 -10 -4 -10 -3 0 -8 5 -11 10 -3 6 -1 10 4 10 6 0 11
-4 11 -10z m80 0 c0 -5 -2 -10 -4 -10 -3 0 -8 5 -11 10 -3 6 -1 10 4 10 6 0
11 -4 11 -10z m-1845 -160 c3 -5 1 -10 -4 -10 -6 0 -11 5 -11 10 0 6 2 10 4
10 3 0 8 -4 11 -10z m80 0 c3 -5 1 -10 -4 -10 -6 0 -11 5 -11 10 0 6 2 10 4
10 3 0 8 -4 11 -10z m1525 -360 c0 -5 -5 -10 -11 -10 -5 0 -7 5 -4 10 3 6 8
10 11 10 2 0 4 -4 4 -10z"/>
<path d="M6549 5192 c-6 -15 -24 -48 -41 -74 l-30 -48 -84 0 -84 0 0 -310 0
-310 30 0 c23 0 30 4 30 20 0 23 -8 22 187 24 146 1 150 0 144 -36 0 -5 15 -8
34 -8 l35 0 0 310 0 310 -105 0 c-94 0 -123 7 -96 24 8 5 51 89 51 100 0 2
-14 9 -30 15 -28 9 -32 8 -41 -17z m156 -274 l1 -98 -168 0 -168 0 0 100 0
100 167 -2 166 -3 2 -97z m-4 -155 c7 -47 2 -206 -6 -211 -11 -7 -293 -11
-312 -4 -14 4 -19 202 -6 215 9 10 323 9 324 0z"/>
<path d="M8718 5203 c-10 -3 -18 -9 -18 -15 0 -6 8 -17 18 -24 15 -12 10 -13
-35 -14 -50 0 -53 -2 -53 -25 l0 -25 125 0 125 0 0 25 c0 23 -4 25 -47 25 -39
0 -51 5 -72 29 -16 17 -33 26 -43 24z"/>
<path d="M8505 5186 c-6 -8 -32 -39 -58 -69 -43 -49 -47 -58 -37 -77 9 -17 18
-21 43 -17 l31 4 -44 -38 c-38 -33 -43 -42 -34 -56 10 -15 27 -18 119 -18 59
0 109 3 111 6 1 3 -8 22 -22 42 -27 41 -70 53 -59 17 6 -18 2 -20 -32 -20
l-37 0 64 65 c53 53 62 67 50 75 -21 14 -28 12 -52 -10 -12 -11 -33 -20 -46
-20 -23 0 -22 3 22 54 44 52 45 56 27 65 -26 14 -34 14 -46 -3z"/>
<path d="M8921 5124 c-60 -72 -58 -94 5 -94 l34 0 -42 -37 c-24 -21 -44 -38
-46 -39 -2 -1 2 -11 9 -23 12 -19 21 -20 124 -17 119 4 121 5 84 58 -24 33
-64 39 -56 8 5 -18 0 -20 -41 -20 l-46 0 68 69 c65 65 67 69 45 76 -18 6 -26
3 -37 -14 -10 -15 -25 -21 -49 -21 l-35 0 41 41 c39 39 53 69 32 69 -5 0 -15
2 -23 4 -7 3 -37 -23 -67 -60z"/>
<path d="M7113 5162 c-25 -2 -33 -8 -33 -23 0 -14 7 -19 28 -19 39 -1 299 -1
350 0 35 0 42 3 42 20 0 15 -7 20 -27 21 -111 3 -334 3 -360 1z"/>
<path d="M7583 5162 c-37 -3 -43 -6 -43 -25 0 -24 -5 -23 383 -18 33 1 38 4
35 22 -3 21 -8 22 -168 23 -91 0 -184 0 -207 -2z"/>
<path d="M8250 5155 c-7 -9 -11 -17 -9 -19 2 -2 30 -19 62 -40 49 -31 60 -34
77 -24 35 22 20 48 -47 82 -40 20 -67 20 -83 1z"/>
<path d="M5963 5102 c-27 -3 -33 -7 -33 -28 0 -23 2 -24 70 -24 l71 0 -3 -87
-3 -88 -53 0 c-50 0 -52 -1 -52 -27 0 -27 2 -28 55 -28 l55 0 0 -109 0 -110
-75 -16 c-41 -9 -75 -20 -75 -24 0 -5 8 -15 18 -24 17 -16 29 -14 175 25 154
42 157 43 157 70 0 16 -1 28 -2 28 -2 0 -31 -9 -65 -19 -34 -10 -64 -16 -67
-13 -3 3 -6 47 -6 99 l0 93 55 0 c52 0 55 1 55 24 0 23 -4 25 -52 28 l-53 3
-3 88 -3 87 70 0 c67 0 69 1 67 25 -1 19 -7 25 -26 26 -144 3 -251 3 -277 1z"/>
<path d="M7139 5078 c-1 -2 -3 -38 -4 -80 l-1 -78 33 0 33 0 0 58 0 57 92 -2
c51 -1 96 -2 101 -2 4 -1 7 -26 7 -57 l0 -55 33 3 32 3 0 75 0 75 -163 3 c-89
1 -163 1 -163 0z"/>
<path d="M7575 5005 c1 -41 0 -75 -2 -75 -2 0 -14 11 -26 25 -20 23 -24 25
-41 12 -19 -14 -19 -16 -3 -40 9 -15 17 -28 17 -29 0 -2 -85 -3 -190 -2 l-190
1 -1 -31 c-5 -282 -11 -315 -71 -389 -23 -28 -23 -29 -4 -43 11 -8 25 -14 30
-14 27 0 106 151 106 201 0 15 7 19 35 19 l35 0 0 -75 c0 -65 -3 -76 -21 -86
l-21 -11 20 -20 c19 -19 25 -20 123 -9 193 22 189 20 189 47 0 27 -2 27 -157
5 -29 -5 -55 -6 -58 -3 -3 3 -5 18 -5 34 l0 28 95 0 c95 0 95 0 95 25 0 25 0
25 -95 25 -88 0 -95 1 -95 20 0 19 7 20 125 20 l125 0 0 -77 c1 -120 7 -124
200 -124 143 -1 155 3 186 64 14 26 13 28 -12 37 -15 6 -28 9 -29 8 -1 -2 -10
-18 -19 -36 l-17 -33 -116 3 c-79 2 -118 7 -120 15 -3 7 11 14 34 17 52 8 205
45 212 51 3 3 -4 14 -15 25 -19 19 -20 19 -74 0 -31 -10 -79 -22 -108 -26
l-52 -7 0 42 0 41 115 0 115 0 0 78 0 78 -112 0 -113 0 -3 27 -3 27 146 0
c146 0 146 0 143 23 -3 22 -5 22 -163 23 -88 1 -170 2 -182 3 -34 2 -28 21 7
21 28 0 29 1 32 56 l3 57 88 1 c49 1 92 -1 96 -4 4 -3 8 -22 9 -42 0 -21 1
-45 1 -53 1 -10 11 -15 30 -15 28 0 29 3 33 48 1 26 2 62 0 80 l-3 32 -163 0
-163 0 2 -75z m-217 -182 c-3 -28 -4 -28 -80 -28 l-78 -1 0 28 0 28 81 0 80 0
-3 -27z m232 -1 l0 -27 -72 1 c-40 1 -76 2 -80 3 -5 1 -8 12 -8 26 0 25 1 25
80 25 l80 0 0 -28z m-230 -102 l0 -30 -80 0 -80 0 0 30 0 30 80 0 80 0 0 -30z
m230 0 l0 -30 -80 0 -80 0 0 30 0 30 80 0 80 0 0 -30z m231 23 c6 -57 13 -53
-78 -53 l-83 0 0 30 0 30 80 0 c44 0 80 -3 81 -7z"/>
<path d="M8652 5053 c3 -16 17 -18 106 -21 97 -3 102 -2 102 18 0 19 -6 20
-106 20 -95 0 -105 -2 -102 -17z"/>
<path d="M7240 5010 c-13 -9 -12 -12 5 -22 10 -6 31 -25 46 -41 25 -27 29 -28
47 -15 18 12 18 16 6 32 -16 22 -64 56 -79 56 -5 0 -17 -5 -25 -10z"/>
<path d="M7692 5011 c-10 -6 -2 -18 28 -48 39 -40 41 -40 61 -24 21 17 21 17
-15 49 -38 33 -52 38 -74 23z"/>
<path d="M8652 4983 c2 -14 16 -19 63 -23 98 -8 145 -1 145 21 0 17 -9 19
-106 19 -95 0 -105 -2 -102 -17z"/>
<path d="M8219 4964 c-10 -13 -10 -17 2 -25 8 -5 17 -9 21 -9 3 0 27 -16 52
-35 40 -30 49 -33 66 -23 11 7 20 16 20 20 0 15 -114 88 -138 88 -5 0 -15 -7
-23 -16z"/>
<path d="M8659 4918 c-1 -2 -3 -31 -4 -65 l-1 -63 103 0 103 0 0 65 0 65 -100
0 c-55 0 -101 -1 -101 -2z m139 -60 c3 -27 1 -28 -37 -28 -39 0 -41 1 -41 31
0 29 2 30 38 27 32 -3 37 -7 40 -30z"/>
<path d="M9051 4891 c-10 -6 -11 -13 -2 -29 6 -11 11 -32 11 -46 0 -22 4 -26
30 -26 l30 0 -16 38 c-9 20 -18 45 -21 55 -6 19 -12 21 -32 8z"/>
<path d="M8393 4841 c-18 -42 -19 -51 -6 -55 30 -12 41 -5 57 34 22 55 20 70
-7 70 -18 0 -27 -11 -44 -49z"/>
<path d="M8490 4858 c0 -18 -3 -43 -6 -55 -5 -19 -2 -23 19 -23 19 0 26 6 31
31 12 62 8 79 -19 79 -22 0 -25 -5 -25 -32z"/>
<path d="M8565 4881 c-3 -6 -1 -29 5 -52 10 -38 13 -40 38 -34 37 9 37 9 21
52 -15 38 -50 56 -64 34z"/>
<path d="M8888 4837 c-9 -28 -14 -55 -11 -59 12 -21 33 -3 47 39 20 60 20 73
-1 73 -13 0 -23 -16 -35 -53z"/>
<path d="M8972 4836 c1 -48 4 -54 22 -50 22 4 36 21 31 38 -2 6 -6 23 -9 39
-4 18 -13 27 -26 27 -17 0 -19 -7 -18 -54z"/>
<path d="M8440 4730 c0 -20 7 -20 275 -20 268 0 275 0 275 -20 0 -19 -7 -20
-255 -20 l-255 0 -31 -61 c-16 -34 -29 -63 -26 -65 2 -2 135 -4 296 -5 l293
-1 -7 -26 c-4 -15 -12 -30 -18 -35 -12 -8 -152 -4 -309 9 -76 7 -77 6 -71 -15
3 -13 11 -24 17 -26 6 -2 88 -9 181 -14 230 -14 245 -10 269 87 3 12 9 31 12
42 5 20 1 20 -280 20 -157 0 -287 4 -290 8 -2 4 -1 14 4 22 7 11 58 14 268 14
l260 0 4 63 3 63 -307 0 c-301 0 -308 0 -308 -20z"/>
<path d="M8326 4705 c-10 -51 -40 -118 -82 -181 -20 -30 -35 -56 -33 -58 2 -2
16 -6 31 -10 25 -6 31 -1 63 47 37 56 84 175 85 215 0 18 -6 22 -29 22 -25 0
-30 -5 -35 -35z"/>
<path d="M5257 4013 c-1 -1 -50 -3 -109 -5 -67 -2 -104 -7 -100 -13 3 -5 -1
-4 -10 2 -8 7 -17 11 -19 8 -3 -2 -68 -7 -145 -11 -191 -9 -189 -8 -186 -22 1
-7 -1 -11 -5 -11 -25 4 -83 -2 -83 -9 0 -8 61 -5 89 4 8 3 60 7 115 9 56 3
128 7 161 9 212 16 337 20 543 19 127 0 232 3 232 7 0 5 -62 9 -137 10 -76 0
-185 2 -241 3 -57 1 -104 1 -105 0z m-510 -39 c-3 -3 -12 -4 -19 -1 -8 3 -5 6
6 6 11 1 17 -2 13 -5z"/>
<path d="M5750 3998 c0 -4 17 -9 38 -9 55 -2 117 -7 457 -34 33 -3 89 -7 125
-10 231 -18 285 -23 340 -30 19 -3 67 -7 105 -10 39 -4 82 -8 98 -10 15 -2 27
1 27 6 0 5 -17 10 -37 11 -41 1 -58 3 -148 12 -33 4 -85 9 -115 12 -30 3 -73
7 -95 9 -22 2 -76 7 -120 10 -91 6 -182 13 -270 20 -33 3 -91 8 -130 10 -38 3
-104 8 -145 11 -124 10 -130 10 -130 2z"/>
<path d="M4590 3978 c-105 -11 -111 -18 -10 -11 47 3 87 7 89 9 10 9 -9 9 -79
2z"/>
<path d="M4435 3954 l-50 -13 50 6 c49 5 63 10 54 16 -2 2 -26 -2 -54 -9z"/>
<path d="M5118 3965 c-2 -2 -52 -6 -113 -10 -60 -4 -130 -9 -155 -11 -25 -2
-92 -6 -150 -9 -58 -3 -127 -10 -155 -15 -27 -5 -70 -12 -95 -15 -24 -4 -47
-8 -50 -10 -3 -1 -25 -6 -50 -9 -25 -4 -52 -8 -60 -10 -8 -1 -37 -6 -65 -10
-27 -4 -57 -10 -65 -13 -8 -4 -22 -7 -30 -8 -8 0 -70 -12 -137 -25 -80 -16
-119 -27 -110 -33 8 -6 6 -7 -7 -3 -10 3 -37 1 -60 -6 -22 -6 -46 -12 -53 -14
-36 -7 -160 -48 -170 -57 -7 -5 -13 -6 -13 -1 0 4 -5 3 -12 -4 -7 -7 -20 -12
-30 -12 -10 0 -18 -5 -18 -12 0 -6 -3 -9 -6 -5 -8 8 -104 -42 -104 -54 0 -6
-4 -8 -9 -5 -13 8 -34 -21 -25 -35 4 -7 3 -9 -4 -5 -6 3 -23 -9 -38 -29 -21
-29 -24 -38 -14 -50 10 -12 9 -16 -4 -21 -12 -5 -15 -16 -12 -43 2 -20 9 -35
15 -34 5 2 8 -3 5 -11 -3 -7 1 -20 8 -27 7 -8 19 -26 25 -41 7 -16 17 -28 23
-28 5 0 10 -4 10 -10 0 -15 38 -50 54 -50 8 0 16 -5 18 -11 2 -7 19 -13 38
-15 19 -2 50 -5 68 -7 17 -2 32 0 32 3 0 3 20 12 46 19 25 7 51 20 59 27 7 8
18 14 24 14 6 0 11 8 11 17 0 9 3 13 6 10 4 -4 20 3 37 15 17 12 42 23 56 24
14 2 27 8 29 14 2 5 7 8 12 5 5 -3 19 -1 32 4 30 12 61 24 71 26 4 2 9 4 12 5
3 1 10 4 15 5 6 1 11 3 13 4 1 2 12 4 25 7 13 2 36 11 52 19 16 8 39 15 50 15
12 0 30 4 40 10 10 5 33 12 51 15 51 7 123 29 130 38 3 5 10 8 15 7 20 -3 104
12 109 20 3 5 14 7 25 5 11 -2 20 0 20 6 0 5 3 8 8 8 4 -1 9 0 12 1 3 1 21 3
40 5 19 1 73 10 120 20 47 9 95 17 107 17 13 0 21 3 19 7 -2 3 13 6 34 5 22 0
37 2 35 6 -2 3 22 7 53 9 66 4 107 8 107 10 0 1 25 4 55 6 30 2 78 7 105 10
126 13 849 21 1008 10 39 -3 57 0 57 8 0 9 2 9 8 1 4 -7 58 -15 132 -19 187
-11 201 -12 250 -19 25 -4 68 -9 95 -11 28 -2 51 -4 53 -5 1 -2 10 -3 20 -4
20 -2 147 -18 177 -22 11 -2 45 -6 75 -9 30 -4 71 -10 90 -14 19 -4 52 -7 73
-6 20 0 37 -2 37 -6 0 -4 8 -7 18 -7 24 1 135 -13 145 -19 4 -2 7 2 7 9 0 11
2 11 9 0 4 -7 29 -14 54 -15 26 -1 47 -5 47 -8 0 -3 14 -5 30 -4 17 1 30 -3
30 -8 0 -5 7 -4 15 3 8 7 15 8 15 3 0 -9 43 -17 155 -29 17 -1 41 -5 55 -9 28
-6 70 -13 115 -20 17 -2 46 -7 65 -10 56 -10 15 12 -47 26 -37 9 -53 17 -53
28 0 10 3 12 8 5 4 -6 31 -14 61 -18 30 -4 68 -9 85 -11 22 -3 18 0 -14 10
l-45 14 50 -5 c55 -6 142 -22 165 -31 8 -4 18 -6 21 -5 4 1 22 -3 40 -9 46
-13 89 -20 89 -15 0 5 -125 44 -155 49 -11 1 -26 6 -32 10 -7 5 -13 6 -13 4 0
-2 -26 2 -57 10 -32 7 -71 16 -88 18 -16 3 -39 7 -50 9 -11 3 -54 12 -95 21
-119 26 -121 26 -136 14 -12 -10 -13 -9 -8 5 5 12 0 16 -17 17 -13 0 -31 2
-39 4 -8 2 -33 6 -55 10 -22 3 -74 12 -115 21 -41 8 -94 15 -117 17 -24 1 -43
5 -43 8 0 4 -140 29 -201 35 -8 0 -31 4 -50 8 -37 6 -99 15 -139 20 -14 1 -30
4 -35 7 -6 2 -23 4 -40 4 -16 0 -32 3 -35 7 -3 4 -30 8 -60 10 -30 2 -58 8
-62 13 -5 6 -8 4 -8 -5 0 -10 -3 -11 -8 -4 -6 10 -47 18 -142 28 -9 1 -21 5
-28 10 -7 4 -12 2 -12 -6 0 -9 -3 -9 -8 -2 -4 6 -14 13 -22 16 -13 5 18 7 120
9 8 0 30 -2 48 -4 17 -2 32 1 32 6 0 4 5 5 10 2 6 -4 43 -9 83 -12 39 -2 74
-7 76 -9 2 -2 13 1 24 7 14 8 18 8 12 -1 -5 -8 1 -11 21 -9 16 2 34 1 39 -3
11 -6 133 -22 178 -22 15 -1 27 -3 27 -7 0 -3 17 -5 38 -4 20 0 42 -2 47 -6 6
-3 37 -9 70 -13 125 -14 141 -15 190 -22 28 -3 59 -8 70 -10 11 -2 45 -7 75
-9 30 -3 62 -8 70 -10 8 -2 40 -7 70 -10 30 -4 58 -9 63 -12 4 -2 7 2 7 9 0 9
3 10 8 2 8 -13 130 -36 143 -28 5 3 9 1 9 -5 0 -6 14 -9 30 -7 17 2 33 0 35
-5 3 -4 13 -7 23 -7 9 1 42 -4 72 -10 30 -6 66 -13 80 -16 86 -14 108 -19 135
-26 55 -15 100 -21 90 -11 -10 9 -187 56 -242 64 -17 3 -35 7 -40 10 -4 3 -25
8 -46 11 -21 3 -73 13 -115 22 -42 9 -88 18 -102 20 -14 1 -37 5 -52 8 -16 3
-38 8 -50 10 -13 2 -99 18 -193 34 -233 42 -279 49 -309 47 -14 0 -26 2 -26 6
0 3 -6 6 -12 6 -13 0 -78 9 -133 18 -73 12 -93 15 -145 21 -30 3 -58 8 -61 10
-4 2 -28 6 -55 9 -88 11 -109 14 -109 15 0 4 -36 8 -189 26 -28 3 -54 8 -60
11 -5 4 -21 7 -35 8 -60 5 -167 17 -179 21 -8 2 -10 -1 -6 -9 6 -9 5 -9 -7 0
-12 10 -18 10 -27 1 -8 -8 -12 -8 -12 -2 0 10 -42 15 -152 18 -27 0 -48 3 -48
6 0 3 -31 6 -70 7 -38 2 -81 5 -95 7 -15 3 -25 0 -25 -7 0 -9 -2 -9 -8 0 -4 7
-54 14 -127 18 -66 4 -122 9 -124 11 -2 2 -11 -2 -19 -9 -13 -10 -14 -9 -8 1
5 9 -1 13 -21 13 -120 3 -532 6 -535 4z m1492 -89 c0 -2 -8 -10 -17 -17 -16
-13 -17 -12 -4 4 13 16 21 21 21 13z m-1390 -70 c0 -2 -8 -10 -17 -17 -16 -13
-17 -12 -4 4 13 16 21 21 21 13z m1421 -13 c13 -16 12 -17 -3 -4 -10 7 -18 15
-18 17 0 8 8 3 21 -13z m-1950 -30 c13 -16 12 -17 -3 -4 -10 7 -18 15 -18 17
0 8 8 3 21 -13z m-1210 -250 c13 -16 12 -17 -3 -4 -10 7 -18 15 -18 17 0 8 8
3 21 -13z m120 -200 c13 -16 12 -17 -3 -4 -17 13 -22 21 -14 21 2 0 10 -8 17
-17z"/>
<path d="M4456 3935 c-49 -8 -97 -16 -107 -18 -11 -3 -21 -1 -24 3 -3 5 9 11
27 13 l33 5 -35 -2 c-22 -1 -34 -6 -32 -13 1 -8 -9 -13 -25 -12 -25 0 -26 1
-8 9 19 8 19 9 -4 9 -17 1 -22 -3 -17 -15 6 -15 -1 -16 -51 -11 -32 3 -50 3
-40 0 9 -2 17 -9 17 -14 0 -6 8 -8 18 -5 9 3 98 17 196 31 99 14 182 28 185
30 7 7 -33 4 -133 -10z"/>
<path d="M4218 3913 c7 -3 16 -2 19 1 4 3 -2 6 -13 5 -11 0 -14 -3 -6 -6z"/>
<path d="M6950 3900 c0 -6 8 -10 18 -11 9 0 42 -3 72 -5 30 -3 52 -2 48 1 -4
4 -31 9 -60 12 -29 2 -59 6 -65 8 -7 2 -13 0 -13 -5z"/>
<path d="M4072 3893 c-6 -2 -10 -9 -6 -14 3 -5 -5 -9 -18 -9 -18 0 -20 2 -8
10 12 7 10 9 -8 7 -12 0 -22 -4 -22 -8 0 -3 -14 -6 -32 -7 -17 0 -34 -5 -37
-9 -3 -5 -15 -10 -26 -10 -11 -1 -27 -3 -35 -6 -8 -2 -32 -7 -52 -12 -21 -4
-38 -11 -38 -17 0 -5 -6 -8 -12 -7 -23 3 -78 -13 -78 -23 0 -12 53 -1 58 12 2
4 12 6 22 3 12 -3 20 0 20 6 0 7 4 9 10 6 5 -3 18 -2 27 3 10 6 34 12 53 15
79 13 111 20 115 27 3 5 14 6 25 3 30 -8 160 18 135 27 -11 4 -23 2 -27 -4 -6
-8 -8 -7 -8 2 0 6 -8 12 -17 12 -15 0 -16 -2 -3 -10 12 -8 10 -10 -8 -10 -13
0 -20 4 -17 10 7 11 6 11 -13 3z"/>
<path d="M7100 3881 c0 -4 6 -8 13 -8 19 0 169 -14 202 -18 17 -2 62 -7 100
-10 39 -3 84 -8 100 -11 17 -2 44 -6 60 -8 17 -2 53 -7 80 -11 46 -7 62 1 19
9 -40 8 -101 16 -154 21 -30 3 -62 8 -70 10 -14 4 -211 23 -307 30 -24 1 -43
0 -43 -4z"/>
<path d="M7028 3843 c7 -3 16 -2 19 1 4 3 -2 6 -13 5 -11 0 -14 -3 -6 -6z"/>
<path d="M7095 3829 c51 -10 92 -10 50 1 -16 4 -43 8 -60 8 -25 0 -24 -2 10
-9z"/>
<path d="M7196 3821 c12 -5 45 -12 75 -16 30 -3 65 -8 79 -10 14 -3 48 -7 75
-10 53 -6 72 -9 148 -23 26 -5 47 -6 47 -2 0 4 -17 10 -37 14 -81 13 -231 35
-288 40 -33 4 -73 9 -90 11 -25 4 -26 3 -9 -4z"/>
<path d="M7710 3813 c0 -8 48 -19 165 -39 17 -3 36 -7 43 -9 6 -2 12 -1 12 3
0 4 -39 16 -87 26 -49 10 -98 20 -110 23 -13 3 -23 1 -23 -4z"/>
<path d="M3675 3781 c-3 -6 -11 -9 -16 -6 -5 4 -9 1 -9 -4 0 -6 6 -11 14 -11
16 0 31 18 23 26 -3 3 -8 0 -12 -5z"/>
<path d="M7945 3770 c-3 -5 -1 -10 4 -10 6 0 11 5 11 10 0 6 -2 10 -4 10 -3 0
-8 -4 -11 -10z"/>
<path d="M7630 3760 c0 -5 10 -9 23 -9 12 0 29 -1 37 -4 39 -10 68 -17 100
-21 19 -2 55 -8 80 -12 25 -5 57 -8 73 -9 15 0 27 -4 27 -8 0 -5 6 -7 13 -4 6
2 24 0 40 -4 15 -4 27 -4 27 0 0 8 -74 27 -145 36 -22 3 -52 8 -67 11 -15 3
-47 7 -70 9 -24 3 -59 9 -78 15 -44 13 -60 13 -60 0z"/>
<path d="M7970 3762 c0 -4 17 -9 37 -10 44 -3 42 3 -4 11 -18 4 -33 3 -33 -1z"/>
<path d="M6858 3753 c7 -3 16 -2 19 1 4 3 -2 6 -13 5 -11 0 -14 -3 -6 -6z"/>
<path d="M6923 3743 c9 -2 23 -2 30 0 6 3 -1 5 -18 5 -16 0 -22 -2 -12 -5z"/>
<path d="M8050 3746 c0 -2 11 -6 25 -8 13 -3 22 -1 19 3 -5 9 -44 13 -44 5z"/>
<path d="M6993 3733 c9 -2 25 -2 35 0 9 3 1 5 -18 5 -19 0 -27 -2 -17 -5z"/>
<path d="M8118 3733 c6 -2 18 -2 25 0 6 3 1 5 -13 5 -14 0 -19 -2 -12 -5z"/>
<path d="M7078 3723 c7 -3 16 -2 19 1 4 3 -2 6 -13 5 -11 0 -14 -3 -6 -6z"/>
<path d="M7110 3718 c0 -4 16 -8 35 -8 19 0 35 2 35 4 0 2 -16 6 -35 8 -19 2
-35 0 -35 -4z"/>
<path d="M7198 3708 c5 -5 16 -8 23 -6 8 3 3 7 -10 11 -17 4 -21 3 -13 -5z"/>
<path d="M8223 3713 c9 -2 23 -2 30 0 6 3 -1 5 -18 5 -16 0 -22 -2 -12 -5z"/>
<path d="M7245 3701 c-2 -4 12 -8 31 -9 19 -2 58 -7 86 -12 62 -12 71 -12 64
-2 -2 4 -20 9 -38 10 -18 1 -57 6 -86 11 -29 4 -54 5 -57 2z"/>
<path d="M8065 3690 c-3 -5 1 -11 9 -11 9 -1 19 -2 24 -3 4 -1 30 -5 57 -10
86 -13 109 -17 153 -27 23 -5 59 -12 80 -15 20 -3 62 -12 93 -20 60 -15 86
-18 77 -8 -9 9 -340 77 -437 90 -18 2 -37 6 -41 9 -5 3 -11 1 -15 -5z"/>
<path d="M7455 3671 c11 -5 40 -11 65 -14 25 -4 74 -11 110 -16 35 -6 66 -8
68 -6 5 5 -21 11 -108 24 -113 17 -157 21 -135 12z"/>
<path d="M7720 3632 c8 -5 37 -13 63 -17 27 -3 58 -8 68 -10 11 -2 17 0 14 4
-2 5 -31 12 -62 15 -32 4 -67 9 -78 12 -15 4 -17 3 -5 -4z"/>
<path d="M6368 3603 c6 -2 18 -2 25 0 6 3 1 5 -13 5 -14 0 -19 -2 -12 -5z"/>
<path d="M6410 3600 c0 -5 5 -10 11 -10 5 0 7 5 4 10 -3 6 -8 10 -11 10 -2 0
-4 -4 -4 -10z"/>
<path d="M7895 3600 c28 -12 47 -12 40 0 -3 6 -18 10 -33 9 -24 0 -25 -1 -7
-9z"/>
<path d="M6503 3583 c9 -2 23 -2 30 0 6 3 -1 5 -18 5 -16 0 -22 -2 -12 -5z"/>
<path d="M6557 3579 c7 -7 15 -10 18 -7 3 3 -2 9 -12 12 -14 6 -15 5 -6 -5z"/>
<path d="M8000 3586 c0 -2 11 -6 25 -8 13 -3 22 -1 19 3 -5 9 -44 13 -44 5z"/>
<path d="M8068 3573 c6 -2 18 -2 25 0 6 3 1 5 -13 5 -14 0 -19 -2 -12 -5z"/>
<path d="M6678 3563 c6 -2 18 -2 25 0 6 3 1 5 -13 5 -14 0 -19 -2 -12 -5z"/>
<path d="M8111 3566 c2 -2 20 -6 39 -10 25 -4 31 -3 20 4 -14 9 -69 15 -59 6z"/>
<path d="M8238 3543 c7 -3 16 -2 19 1 4 3 -2 6 -13 5 -11 0 -14 -3 -6 -6z"/>
<path d="M2203 3000 c-28 -3 -54 -8 -58 -11 -5 -5 -7 -177 -5 -501 l0 -58 35
0 35 0 0 126 0 127 61 -6 c84 -7 101 -25 134 -148 l27 -99 39 0 38 0 -10 33
c-5 17 -19 66 -30 108 -14 54 -29 85 -49 104 l-29 28 38 28 c45 32 66 83 58
141 -14 104 -111 148 -284 128z m140 -61 c58 -16 83 -72 62 -139 -12 -38 -62
-63 -129 -64 l-61 0 -3 101 c-3 99 -2 102 20 106 42 8 73 7 111 -4z"/>
<path d="M3300 3002 c-31 -3 -46 -17 -140 -135 l-105 -130 -3 131 -3 132 -39
0 -40 0 0 -285 0 -285 40 0 40 0 0 107 c0 99 2 108 26 140 l26 35 94 -141 94
-141 40 0 c22 0 40 2 40 5 0 3 -48 76 -106 161 -58 85 -104 161 -101 168 3 7
47 61 97 120 51 59 89 110 84 114 -5 4 -25 6 -44 4z"/>
<path d="M4970 2988 c-63 -33 -87 -80 -81 -165 0 -12 14 -37 30 -55 28 -32 46
-43 144 -88 63 -29 88 -68 76 -118 -14 -65 -81 -94 -167 -72 -25 6 -53 16 -60
23 -16 13 -32 -6 -32 -38 0 -24 37 -40 115 -51 166 -21 276 121 196 253 -14
23 -44 43 -105 72 -46 22 -94 50 -105 62 -30 33 -27 75 9 111 29 29 34 30 93
26 34 -3 69 -8 78 -12 12 -5 19 0 27 23 10 28 9 30 -20 40 -54 19 -149 13
-198 -11z"/>
<path d="M7488 3002 c-32 -4 -29 30 -29 -307 0 -107 0 -211 1 -230 0 -33 2
-35 35 -35 l35 0 -4 235 c-2 129 -3 235 -1 235 4 0 107 -169 151 -245 12 -22
47 -80 77 -130 53 -89 55 -90 93 -90 l39 0 1 280 c0 154 -1 283 -2 286 -2 3
-17 4 -34 1 l-31 -4 3 -229 c2 -126 1 -229 -2 -229 -3 0 -14 19 -24 42 -32 70
-248 408 -265 416 -9 4 -28 6 -43 4z"/>
<path d="M8587 3004 c-2 -2 -40 -4 -85 -5 l-82 -2 0 -283 0 -284 113 0 c152 0
203 16 272 83 67 65 90 133 83 241 -10 146 -89 227 -241 245 -31 4 -59 6 -60
5z m117 -82 c58 -26 96 -85 103 -160 15 -165 -70 -269 -225 -276 -37 -1 -73
-1 -79 2 -10 3 -13 58 -13 227 l0 224 38 3 c68 6 134 -2 176 -20z"/>
<path d="M480 2714 l0 -284 35 0 c19 0 36 3 36 8 1 4 3 52 4 107 2 55 3 102 4
106 1 3 27 5 59 5 131 1 212 67 212 173 0 57 -9 86 -38 118 -36 42 -84 54
-203 52 l-109 -1 0 -284z m207 222 c37 -8 73 -58 73 -100 0 -40 -26 -84 -62
-102 -31 -16 -116 -23 -134 -11 -5 3 -9 51 -9 108 0 101 1 103 25 109 28 7 61
6 107 -4z"/>
<path d="M1292 2722 c-51 -152 -92 -281 -92 -285 0 -5 17 -7 37 -5 36 3 36 3
66 91 l29 88 101 -3 100 -3 30 -87 29 -88 38 0 39 0 -13 43 c-8 23 -50 150
-95 281 -45 132 -81 241 -81 243 0 2 -21 3 -47 3 l-48 -1 -93 -277z m177 90
c18 -59 36 -115 38 -124 5 -16 -3 -18 -76 -18 -44 0 -81 3 -81 6 0 15 74 244
79 244 3 0 21 -48 40 -108z"/>
<path d="M5727 2993 c-2 -5 -3 -132 -3 -283 l1 -275 158 -3 158 -3 -3 33 -3
33 -115 0 -115 0 -3 253 -2 252 -35 0 c-18 0 -36 -3 -38 -7z"/>
<path d="M6677 2993 c-3 -5 -9 -24 -15 -43 -6 -19 -47 -142 -91 -274 -45 -131
-81 -241 -81 -243 0 -2 17 -3 38 -1 l37 3 29 88 30 88 99 -3 100 -3 30 -87 30
-88 39 0 c21 0 38 2 38 4 0 2 -43 129 -95 281 -52 153 -95 279 -95 281 0 8
-89 4 -93 -3z m87 -190 c20 -65 36 -121 36 -125 0 -7 -160 -12 -160 -5 0 1 16
52 35 112 19 61 35 116 35 123 0 6 4 12 8 12 5 0 25 -53 46 -117z"/>
<path d="M4290 2690 l0 -280 38 0 38 0 0 280 0 280 -38 0 -38 0 0 -280z"/>
</g>
</svg>
